<?xml version="1.0" encoding="UTF-8" standalone="no"?>
<!DOCTYPE svg PUBLIC "-//W3C//DTD SVG 1.1//EN"
 "http://www.w3.org/Graphics/SVG/1.1/DTD/svg11.dtd">
<!-- Generated by graphviz version 10.0.1 (20240210.2158)
 -->
<!-- Pages: 1 -->
<svg width="2144pt" height="486pt"
 viewBox="0.00 0.00 2144.38 486.00" xmlns="http://www.w3.org/2000/svg" xmlns:xlink="http://www.w3.org/1999/xlink">
<g id="graph0" class="graph" transform="scale(1 1) rotate(0) translate(4 482)">
<polygon fill="white" stroke="none" points="-4,4 -4,-482 2140.38,-482 2140.38,4 -4,4"/>
<!-- 1 -->
<g id="node1" class="node">
<title>1</title>
<polygon fill="none" stroke="black" points="1688,-478 1630.75,-478 1630.75,-437 1688,-437 1688,-478"/>
<text text-anchor="middle" x="1659.38" y="-460.7" font-family="Times,serif" font-size="14.00">(1) root</text>
<text text-anchor="middle" x="1659.38" y="-444.2" font-family="Times,serif" font-size="14.00">main </text>
</g>
<!-- 2 -->
<g id="node2" class="node">
<title>2</title>
<polygon fill="none" stroke="darkred" points="1701.88,-401 1616.88,-401 1616.88,-365 1701.88,-365 1701.88,-401"/>
<text text-anchor="middle" x="1659.38" y="-377.95" font-family="Times,serif" font-size="14.00">(2) sequence</text>
</g>
<!-- 1&#45;&gt;2 -->
<g id="edge1" class="edge">
<title>1&#45;&gt;2</title>
<path fill="none" stroke="black" d="M1659.38,-436.69C1659.38,-429.25 1659.38,-420.64 1659.38,-412.57"/>
<polygon fill="black" stroke="black" points="1662.88,-412.83 1659.38,-402.83 1655.88,-412.83 1662.88,-412.83"/>
</g>
<!-- 3 -->
<g id="node3" class="node">
<title>3</title>
<polygon fill="none" stroke="darkred" points="865.88,-329 780.88,-329 780.88,-288 865.88,-288 865.88,-329"/>
<text text-anchor="middle" x="823.38" y="-311.7" font-family="Times,serif" font-size="14.00">(3) sequence</text>
<text text-anchor="middle" x="823.38" y="-295.2" font-family="Times,serif" font-size="14.00">define_env </text>
</g>
<!-- 2&#45;&gt;3 -->
<g id="edge2" class="edge">
<title>2&#45;&gt;3</title>
<path fill="none" stroke="black" d="M1616.48,-378.28C1476.39,-366.13 1032.47,-327.63 877.44,-314.19"/>
<polygon fill="black" stroke="black" points="878.12,-310.73 867.86,-313.36 877.52,-317.71 878.12,-310.73"/>
</g>
<!-- 4 -->
<g id="node4" class="node">
<title>4</title>
<polygon fill="none" stroke="darkred" points="1609.62,-329 1427.12,-329 1427.12,-288 1609.62,-288 1609.62,-329"/>
<text text-anchor="middle" x="1518.38" y="-311.7" font-family="Times,serif" font-size="14.00">(4) sequence</text>
<text text-anchor="middle" x="1518.38" y="-295.2" font-family="Times,serif" font-size="14.00">move_to (target=&amp;init_coord)</text>
</g>
<!-- 2&#45;&gt;4 -->
<g id="edge3" class="edge">
<title>2&#45;&gt;4</title>
<path fill="none" stroke="black" d="M1625.6,-364.63C1608.13,-355.65 1586.48,-344.52 1567.22,-334.62"/>
<polygon fill="black" stroke="black" points="1568.95,-331.57 1558.45,-330.11 1565.75,-337.79 1568.95,-331.57"/>
</g>
<!-- 5 -->
<g id="node5" class="node">
<title>5</title>
<polygon fill="none" stroke="green" points="1690.62,-326.5 1628.12,-326.5 1628.12,-322.5 1624.12,-322.5 1624.12,-318.5 1628.12,-318.5 1628.12,-298.5 1624.12,-298.5 1624.12,-294.5 1628.12,-294.5 1628.12,-290.5 1690.62,-290.5 1690.62,-326.5"/>
<polyline fill="none" stroke="green" points="1628.12,-322.5 1632.12,-322.5 1632.12,-318.5 1628.12,-318.5"/>
<polyline fill="none" stroke="green" points="1628.12,-298.5 1632.12,-298.5 1632.12,-294.5 1628.12,-294.5"/>
<text text-anchor="middle" x="1659.38" y="-303.45" font-family="Times,serif" font-size="14.00">(5) pick </text>
</g>
<!-- 2&#45;&gt;5 -->
<g id="edge4" class="edge">
<title>2&#45;&gt;5</title>
<path fill="none" stroke="black" d="M1659.38,-364.82C1659.38,-356.78 1659.38,-347 1659.38,-337.91"/>
<polygon fill="black" stroke="black" points="1662.88,-338.07 1659.38,-328.07 1655.88,-338.07 1662.88,-338.07"/>
</g>
<!-- 6 -->
<g id="node6" class="node">
<title>6</title>
<polygon fill="none" stroke="darkred" points="1894.12,-329 1708.62,-329 1708.62,-288 1894.12,-288 1894.12,-329"/>
<text text-anchor="middle" x="1801.38" y="-311.7" font-family="Times,serif" font-size="14.00">(6) sequence</text>
<text text-anchor="middle" x="1801.38" y="-295.2" font-family="Times,serif" font-size="14.00">move_to (target=&amp;targ_coord)</text>
</g>
<!-- 2&#45;&gt;6 -->
<g id="edge5" class="edge">
<title>2&#45;&gt;6</title>
<path fill="none" stroke="black" d="M1693.39,-364.63C1710.98,-355.65 1732.78,-344.52 1752.18,-334.62"/>
<polygon fill="black" stroke="black" points="1753.71,-337.77 1761.02,-330.1 1750.52,-331.53 1753.71,-337.77"/>
</g>
<!-- 7 -->
<g id="node7" class="node">
<title>7</title>
<polygon fill="none" stroke="green" points="1980.25,-326.5 1912.5,-326.5 1912.5,-322.5 1908.5,-322.5 1908.5,-318.5 1912.5,-318.5 1912.5,-298.5 1908.5,-298.5 1908.5,-294.5 1912.5,-294.5 1912.5,-290.5 1980.25,-290.5 1980.25,-326.5"/>
<polyline fill="none" stroke="green" points="1912.5,-322.5 1916.5,-322.5 1916.5,-318.5 1912.5,-318.5"/>
<polyline fill="none" stroke="green" points="1912.5,-298.5 1916.5,-298.5 1916.5,-294.5 1912.5,-294.5"/>
<text text-anchor="middle" x="1946.38" y="-303.45" font-family="Times,serif" font-size="14.00">(7) place </text>
</g>
<!-- 2&#45;&gt;7 -->
<g id="edge6" class="edge">
<title>2&#45;&gt;7</title>
<path fill="none" stroke="black" d="M1701.98,-375.56C1749.05,-367.84 1827.04,-353.22 1901.84,-329.17"/>
<polygon fill="black" stroke="black" points="1902.52,-332.62 1910.93,-326.18 1900.34,-325.97 1902.52,-332.62"/>
</g>
<!-- 8 -->
<g id="node8" class="node">
<title>8</title>
<polygon fill="none" stroke="green" points="184.75,-252 0,-252 0,-248 -4,-248 -4,-244 0,-244 0,-224 -4,-224 -4,-220 0,-220 0,-216 184.75,-216 184.75,-252"/>
<polyline fill="none" stroke="green" points="0,-248 4,-248 4,-244 0,-244"/>
<polyline fill="none" stroke="green" points="0,-224 4,-224 4,-220 0,-220"/>
<text text-anchor="middle" x="92.38" y="-228.95" font-family="Times,serif" font-size="14.00">(8) store (key=size,value=100)</text>
</g>
<!-- 3&#45;&gt;8 -->
<g id="edge7" class="edge">
<title>3&#45;&gt;8</title>
<path fill="none" stroke="black" d="M780.47,-304.89C680.13,-298.54 422.13,-280.76 196.47,-252.34"/>
<polygon fill="black" stroke="black" points="196.93,-248.87 186.57,-251.08 196.05,-255.82 196.93,-248.87"/>
</g>
<!-- 9 -->
<g id="node9" class="node">
<title>9</title>
<polygon fill="none" stroke="green" points="408.25,-252 202.5,-252 202.5,-248 198.5,-248 198.5,-244 202.5,-244 202.5,-224 198.5,-224 198.5,-220 202.5,-220 202.5,-216 408.25,-216 408.25,-252"/>
<polyline fill="none" stroke="green" points="202.5,-248 206.5,-248 206.5,-244 202.5,-244"/>
<polyline fill="none" stroke="green" points="202.5,-224 206.5,-224 206.5,-220 202.5,-220"/>
<text text-anchor="middle" x="305.38" y="-228.95" font-family="Times,serif" font-size="14.00">(9) store (key=init_coord,value=0)</text>
</g>
<!-- 3&#45;&gt;9 -->
<g id="edge8" class="edge">
<title>3&#45;&gt;9</title>
<path fill="none" stroke="black" d="M780.38,-301.83C708.2,-292.28 557.78,-272.16 419.69,-252.32"/>
<polygon fill="black" stroke="black" points="420.4,-248.89 410,-250.93 419.4,-255.82 420.4,-248.89"/>
</g>
<!-- 10 -->
<g id="node10" class="node">
<title>10</title>
<polygon fill="none" stroke="green" points="702.5,-252 426.25,-252 426.25,-248 422.25,-248 422.25,-244 426.25,-244 426.25,-224 422.25,-224 422.25,-220 426.25,-220 426.25,-216 702.5,-216 702.5,-252"/>
<polyline fill="none" stroke="green" points="426.25,-248 430.25,-248 430.25,-244 426.25,-244"/>
<polyline fill="none" stroke="green" points="426.25,-224 430.25,-224 430.25,-220 426.25,-220"/>
<text text-anchor="middle" x="564.38" y="-228.95" font-family="Times,serif" font-size="14.00">(10) store (key=curr_coord,value=&amp;init_coord)</text>
</g>
<!-- 3&#45;&gt;10 -->
<g id="edge9" class="edge">
<title>3&#45;&gt;10</title>
<path fill="none" stroke="black" d="M780.61,-295.53C741.77,-284.66 683.66,-268.39 637.46,-255.46"/>
<polygon fill="black" stroke="black" points="638.63,-252.15 628.05,-252.83 636.74,-258.89 638.63,-252.15"/>
</g>
<!-- 11 -->
<g id="node11" class="node">
<title>11</title>
<polygon fill="none" stroke="green" points="925.88,-252 720.88,-252 720.88,-248 716.88,-248 716.88,-244 720.88,-244 720.88,-224 716.88,-224 716.88,-220 720.88,-220 720.88,-216 925.88,-216 925.88,-252"/>
<polyline fill="none" stroke="green" points="720.88,-248 724.88,-248 724.88,-244 720.88,-244"/>
<polyline fill="none" stroke="green" points="720.88,-224 724.88,-224 724.88,-220 720.88,-220"/>
<text text-anchor="middle" x="823.38" y="-228.95" font-family="Times,serif" font-size="14.00">(11) store (key=direction,value=0)</text>
</g>
<!-- 3&#45;&gt;11 -->
<g id="edge10" class="edge">
<title>3&#45;&gt;11</title>
<path fill="none" stroke="black" d="M823.38,-287.69C823.38,-280.25 823.38,-271.64 823.38,-263.57"/>
<polygon fill="black" stroke="black" points="826.88,-263.83 823.38,-253.83 819.88,-263.83 826.88,-263.83"/>
</g>
<!-- 12 -->
<g id="node12" class="node">
<title>12</title>
<polygon fill="none" stroke="green" points="1168.62,-252 944.12,-252 944.12,-248 940.12,-248 940.12,-244 944.12,-244 944.12,-224 940.12,-224 940.12,-220 944.12,-220 944.12,-216 1168.62,-216 1168.62,-252"/>
<polyline fill="none" stroke="green" points="944.12,-248 948.12,-248 948.12,-244 944.12,-244"/>
<polyline fill="none" stroke="green" points="944.12,-224 948.12,-224 948.12,-220 944.12,-220"/>
<text text-anchor="middle" x="1056.38" y="-228.95" font-family="Times,serif" font-size="14.00">(12) store (key=load_coord,value=50)</text>
</g>
<!-- 3&#45;&gt;12 -->
<g id="edge11" class="edge">
<title>3&#45;&gt;12</title>
<path fill="none" stroke="black" d="M866.11,-294.2C900.58,-283.48 949.67,-268.2 989.36,-255.85"/>
<polygon fill="black" stroke="black" points="990.33,-259.22 998.84,-252.9 988.25,-252.53 990.33,-259.22"/>
</g>
<!-- 13 -->
<g id="node13" class="node">
<title>13</title>
<polygon fill="none" stroke="green" points="1408.5,-252 1186.25,-252 1186.25,-248 1182.25,-248 1182.25,-244 1186.25,-244 1186.25,-224 1182.25,-224 1182.25,-220 1186.25,-220 1186.25,-216 1408.5,-216 1408.5,-252"/>
<polyline fill="none" stroke="green" points="1186.25,-248 1190.25,-248 1190.25,-244 1186.25,-244"/>
<polyline fill="none" stroke="green" points="1186.25,-224 1190.25,-224 1190.25,-220 1186.25,-220"/>
<text text-anchor="middle" x="1297.38" y="-228.95" font-family="Times,serif" font-size="14.00">(13) store (key=targ_coord,value=10)</text>
</g>
<!-- 3&#45;&gt;13 -->
<g id="edge12" class="edge">
<title>3&#45;&gt;13</title>
<path fill="none" stroke="black" d="M866.28,-300.94C935.25,-290.39 1073.31,-269.27 1174.69,-253.77"/>
<polygon fill="black" stroke="black" points="1175.08,-257.25 1184.43,-252.27 1174.02,-250.33 1175.08,-257.25"/>
</g>
<!-- 14 -->
<g id="node14" class="node">
<title>14</title>
<polygon fill="none" stroke="green" points="1560.62,-252 1426.12,-252 1426.12,-248 1422.12,-248 1422.12,-244 1426.12,-244 1426.12,-224 1422.12,-224 1422.12,-220 1426.12,-220 1426.12,-216 1560.62,-216 1560.62,-252"/>
<polyline fill="none" stroke="green" points="1426.12,-248 1430.12,-248 1430.12,-244 1426.12,-244"/>
<polyline fill="none" stroke="green" points="1426.12,-224 1430.12,-224 1430.12,-220 1426.12,-220"/>
<text text-anchor="middle" x="1493.38" y="-228.95" font-family="Times,serif" font-size="14.00">(14) define_direction </text>
</g>
<!-- 4&#45;&gt;14 -->
<g id="edge13" class="edge">
<title>4&#45;&gt;14</title>
<path fill="none" stroke="black" d="M1511.54,-287.69C1508.92,-280.08 1505.87,-271.24 1503.03,-263.01"/>
<polygon fill="black" stroke="black" points="1506.41,-262.06 1499.84,-253.75 1499.79,-264.35 1506.41,-262.06"/>
</g>
<!-- 15 -->
<g id="node15" class="node">
<title>15</title>
<polygon fill="none" stroke="purple" points="1716.5,-252 1590.25,-252 1590.25,-256 1578.25,-256 1578.25,-216 1716.5,-216 1716.5,-252"/>
<polyline fill="none" stroke="purple" points="1578.25,-252 1590.25,-252"/>
<text text-anchor="middle" x="1647.38" y="-228.95" font-family="Times,serif" font-size="14.00">(15) retry (arg=&amp;size)</text>
</g>
<!-- 4&#45;&gt;15 -->
<g id="edge14" class="edge">
<title>4&#45;&gt;15</title>
<path fill="none" stroke="black" d="M1553.62,-287.69C1570.09,-278.44 1589.78,-267.37 1606.85,-257.78"/>
<polygon fill="black" stroke="black" points="1608.24,-261.01 1615.24,-253.06 1604.81,-254.91 1608.24,-261.01"/>
</g>
<!-- 16 -->
<g id="node16" class="node">
<title>16</title>
<polygon fill="none" stroke="green" points="1868.62,-252 1734.12,-252 1734.12,-248 1730.12,-248 1730.12,-244 1734.12,-244 1734.12,-224 1730.12,-224 1730.12,-220 1734.12,-220 1734.12,-216 1868.62,-216 1868.62,-252"/>
<polyline fill="none" stroke="green" points="1734.12,-248 1738.12,-248 1738.12,-244 1734.12,-244"/>
<polyline fill="none" stroke="green" points="1734.12,-224 1738.12,-224 1738.12,-220 1734.12,-220"/>
<text text-anchor="middle" x="1801.38" y="-228.95" font-family="Times,serif" font-size="14.00">(16) define_direction </text>
</g>
<!-- 6&#45;&gt;16 -->
<g id="edge15" class="edge">
<title>6&#45;&gt;16</title>
<path fill="none" stroke="black" d="M1801.38,-287.69C1801.38,-280.25 1801.38,-271.64 1801.38,-263.57"/>
<polygon fill="black" stroke="black" points="1804.88,-263.83 1801.38,-253.83 1797.88,-263.83 1804.88,-263.83"/>
</g>
<!-- 17 -->
<g id="node17" class="node">
<title>17</title>
<polygon fill="none" stroke="purple" points="2024.5,-252 1898.25,-252 1898.25,-256 1886.25,-256 1886.25,-216 2024.5,-216 2024.5,-252"/>
<polyline fill="none" stroke="purple" points="1886.25,-252 1898.25,-252"/>
<text text-anchor="middle" x="1955.38" y="-228.95" font-family="Times,serif" font-size="14.00">(17) retry (arg=&amp;size)</text>
</g>
<!-- 6&#45;&gt;17 -->
<g id="edge16" class="edge">
<title>6&#45;&gt;17</title>
<path fill="none" stroke="black" d="M1843.46,-287.69C1863.49,-278.26 1887.53,-266.94 1908.19,-257.22"/>
<polygon fill="black" stroke="black" points="1909.4,-260.51 1916.96,-253.09 1906.42,-254.18 1909.4,-260.51"/>
</g>
<!-- 18 -->
<g id="node18" class="node">
<title>18</title>
<polygon fill="none" stroke="blue" points="1690.25,-180 1604.5,-180 1604.5,-144 1690.25,-144 1690.25,-180"/>
<text text-anchor="middle" x="1647.38" y="-156.95" font-family="Times,serif" font-size="14.00">(18) fallback</text>
</g>
<!-- 15&#45;&gt;18 -->
<g id="edge17" class="edge">
<title>15&#45;&gt;18</title>
<path fill="none" stroke="black" d="M1647.38,-215.7C1647.38,-208.41 1647.38,-199.73 1647.38,-191.54"/>
<polygon fill="black" stroke="black" points="1650.88,-191.62 1647.38,-181.62 1643.88,-191.62 1650.88,-191.62"/>
</g>
<!-- 19 -->
<g id="node19" class="node">
<title>19</title>
<polygon fill="none" stroke="blue" points="1998.25,-180 1912.5,-180 1912.5,-144 1998.25,-144 1998.25,-180"/>
<text text-anchor="middle" x="1955.38" y="-156.95" font-family="Times,serif" font-size="14.00">(19) fallback</text>
</g>
<!-- 17&#45;&gt;19 -->
<g id="edge18" class="edge">
<title>17&#45;&gt;19</title>
<path fill="none" stroke="black" d="M1955.38,-215.7C1955.38,-208.41 1955.38,-199.73 1955.38,-191.54"/>
<polygon fill="black" stroke="black" points="1958.88,-191.62 1955.38,-181.62 1951.88,-191.62 1958.88,-191.62"/>
</g>
<!-- 20 -->
<g id="node20" class="node">
<title>20</title>
<polygon fill="none" stroke="green" points="1620.75,-108 1406,-108 1406,-104 1402,-104 1402,-100 1406,-100 1406,-80 1402,-80 1402,-76 1406,-76 1406,-72 1620.75,-72 1620.75,-108"/>
<polyline fill="none" stroke="green" points="1406,-104 1410,-104 1410,-100 1406,-100"/>
<polyline fill="none" stroke="green" points="1406,-80 1410,-80 1410,-76 1406,-76"/>
<text text-anchor="middle" x="1513.38" y="-84.95" font-family="Times,serif" font-size="14.00">(20) is_arrived (target=&amp;init_coord)</text>
</g>
<!-- 18&#45;&gt;20 -->
<g id="edge19" class="edge">
<title>18&#45;&gt;20</title>
<path fill="none" stroke="black" d="M1613.91,-143.52C1596.51,-134.43 1575.05,-123.22 1556.43,-113.49"/>
<polygon fill="black" stroke="black" points="1558.24,-110.49 1547.76,-108.96 1555,-116.69 1558.24,-110.49"/>
</g>
<!-- 21 -->
<g id="node21" class="node">
<title>21</title>
<polygon fill="none" stroke="purple" points="1726.38,-108 1650.38,-108 1650.38,-112 1638.38,-112 1638.38,-72 1726.38,-72 1726.38,-108"/>
<polyline fill="none" stroke="purple" points="1638.38,-108 1650.38,-108"/>
<text text-anchor="middle" x="1682.38" y="-84.95" font-family="Times,serif" font-size="14.00">(21) inverter </text>
</g>
<!-- 18&#45;&gt;21 -->
<g id="edge20" class="edge">
<title>18&#45;&gt;21</title>
<path fill="none" stroke="black" d="M1656.03,-143.7C1659.84,-136.07 1664.42,-126.92 1668.68,-118.4"/>
<polygon fill="black" stroke="black" points="1671.8,-119.97 1673.15,-109.46 1665.54,-116.84 1671.8,-119.97"/>
</g>
<!-- 22 -->
<g id="node22" class="node">
<title>22</title>
<polygon fill="none" stroke="green" points="2030.25,-108 1812.5,-108 1812.5,-104 1808.5,-104 1808.5,-100 1812.5,-100 1812.5,-80 1808.5,-80 1808.5,-76 1812.5,-76 1812.5,-72 2030.25,-72 2030.25,-108"/>
<polyline fill="none" stroke="green" points="1812.5,-104 1816.5,-104 1816.5,-100 1812.5,-100"/>
<polyline fill="none" stroke="green" points="1812.5,-80 1816.5,-80 1816.5,-76 1812.5,-76"/>
<text text-anchor="middle" x="1921.38" y="-84.95" font-family="Times,serif" font-size="14.00">(22) is_arrived (target=&amp;targ_coord)</text>
</g>
<!-- 19&#45;&gt;22 -->
<g id="edge21" class="edge">
<title>19&#45;&gt;22</title>
<path fill="none" stroke="black" d="M1946.97,-143.7C1943.26,-136.07 1938.82,-126.92 1934.68,-118.4"/>
<polygon fill="black" stroke="black" points="1937.86,-116.93 1930.34,-109.47 1931.56,-119.99 1937.86,-116.93"/>
</g>
<!-- 23 -->
<g id="node23" class="node">
<title>23</title>
<polygon fill="none" stroke="purple" points="2136.38,-108 2060.38,-108 2060.38,-112 2048.38,-112 2048.38,-72 2136.38,-72 2136.38,-108"/>
<polyline fill="none" stroke="purple" points="2048.38,-108 2060.38,-108"/>
<text text-anchor="middle" x="2092.38" y="-84.95" font-family="Times,serif" font-size="14.00">(23) inverter </text>
</g>
<!-- 19&#45;&gt;23 -->
<g id="edge22" class="edge">
<title>19&#45;&gt;23</title>
<path fill="none" stroke="black" d="M1989.59,-143.52C2007.38,-134.43 2029.32,-123.22 2048.36,-113.49"/>
<polygon fill="black" stroke="black" points="2049.93,-116.62 2057.25,-108.95 2046.75,-110.38 2049.93,-116.62"/>
</g>
<!-- 24 -->
<g id="node24" class="node">
<title>24</title>
<polygon fill="none" stroke="green" points="1720.75,-36 1644,-36 1644,-32 1640,-32 1640,-28 1644,-28 1644,-8 1640,-8 1640,-4 1644,-4 1644,0 1720.75,0 1720.75,-36"/>
<polyline fill="none" stroke="green" points="1644,-32 1648,-32 1648,-28 1644,-28"/>
<polyline fill="none" stroke="green" points="1644,-8 1648,-8 1648,-4 1644,-4"/>
<text text-anchor="middle" x="1682.38" y="-12.95" font-family="Times,serif" font-size="14.00">(24) move </text>
</g>
<!-- 21&#45;&gt;24 -->
<g id="edge23" class="edge">
<title>21&#45;&gt;24</title>
<path fill="none" stroke="black" d="M1682.38,-71.7C1682.38,-64.41 1682.38,-55.73 1682.38,-47.54"/>
<polygon fill="black" stroke="black" points="1685.88,-47.62 1682.38,-37.62 1678.88,-47.62 1685.88,-47.62"/>
</g>
<!-- 25 -->
<g id="node25" class="node">
<title>25</title>
<polygon fill="none" stroke="green" points="2130.75,-36 2054,-36 2054,-32 2050,-32 2050,-28 2054,-28 2054,-8 2050,-8 2050,-4 2054,-4 2054,0 2130.75,0 2130.75,-36"/>
<polyline fill="none" stroke="green" points="2054,-32 2058,-32 2058,-28 2054,-28"/>
<polyline fill="none" stroke="green" points="2054,-8 2058,-8 2058,-4 2054,-4"/>
<text text-anchor="middle" x="2092.38" y="-12.95" font-family="Times,serif" font-size="14.00">(25) move </text>
</g>
<!-- 23&#45;&gt;25 -->
<g id="edge24" class="edge">
<title>23&#45;&gt;25</title>
<path fill="none" stroke="black" d="M2092.38,-71.7C2092.38,-64.41 2092.38,-55.73 2092.38,-47.54"/>
<polygon fill="black" stroke="black" points="2095.88,-47.62 2092.38,-37.62 2088.88,-47.62 2095.88,-47.62"/>
</g>
</g>
</svg>
