<?xml version="1.0" encoding="UTF-8" standalone="no"?>
<!DOCTYPE svg PUBLIC "-//W3C//DTD SVG 1.1//EN"
 "http://www.w3.org/Graphics/SVG/1.1/DTD/svg11.dtd">
<!-- Generated by graphviz version 10.0.1 (20240210.2158)
 -->
<!-- Pages: 1 -->
<svg width="2488pt" height="558pt"
 viewBox="0.00 0.00 2487.62 558.00" xmlns="http://www.w3.org/2000/svg" xmlns:xlink="http://www.w3.org/1999/xlink">
<g id="graph0" class="graph" transform="scale(1 1) rotate(0) translate(4 554)">
<polygon fill="white" stroke="none" points="-4,4 -4,-554 2483.62,-554 2483.62,4 -4,4"/>
<!-- 1 -->
<g id="node1" class="node">
<title>1</title>
<polygon fill="none" stroke="black" points="1199.5,-550 1142.25,-550 1142.25,-509 1199.5,-509 1199.5,-550"/>
<text text-anchor="middle" x="1170.88" y="-532.7" font-family="Times,serif" font-size="14.00">(1) root</text>
<text text-anchor="middle" x="1170.88" y="-516.2" font-family="Times,serif" font-size="14.00">main </text>
</g>
<!-- 2 -->
<g id="node2" class="node">
<title>2</title>
<polygon fill="none" stroke="darkred" points="1213.38,-473 1128.38,-473 1128.38,-437 1213.38,-437 1213.38,-473"/>
<text text-anchor="middle" x="1170.88" y="-449.95" font-family="Times,serif" font-size="14.00">(2) sequence</text>
</g>
<!-- 1&#45;&gt;2 -->
<g id="edge1" class="edge">
<title>1&#45;&gt;2</title>
<path fill="none" stroke="black" d="M1170.88,-508.69C1170.88,-501.25 1170.88,-492.64 1170.88,-484.57"/>
<polygon fill="black" stroke="black" points="1174.38,-484.83 1170.88,-474.83 1167.38,-484.83 1174.38,-484.83"/>
</g>
<!-- 3 -->
<g id="node3" class="node">
<title>3</title>
<polygon fill="none" stroke="green" points="1096.12,-401 1003.62,-401 1003.62,-397 999.62,-397 999.62,-393 1003.62,-393 1003.62,-373 999.62,-373 999.62,-369 1003.62,-369 1003.62,-365 1096.12,-365 1096.12,-401"/>
<polyline fill="none" stroke="green" points="1003.62,-397 1007.62,-397 1007.62,-393 1003.62,-393"/>
<polyline fill="none" stroke="green" points="1003.62,-373 1007.62,-373 1007.62,-369 1003.62,-369"/>
<text text-anchor="middle" x="1049.88" y="-377.95" font-family="Times,serif" font-size="14.00">(3) init_robot </text>
</g>
<!-- 2&#45;&gt;3 -->
<g id="edge2" class="edge">
<title>2&#45;&gt;3</title>
<path fill="none" stroke="black" d="M1140.65,-436.52C1125.09,-427.51 1105.92,-416.42 1089.22,-406.76"/>
<polygon fill="black" stroke="black" points="1091.43,-404 1081.02,-402.02 1087.92,-410.06 1091.43,-404"/>
</g>
<!-- 4 -->
<g id="node4" class="node">
<title>4</title>
<polygon fill="none" stroke="green" points="1228,-401 1113.75,-401 1113.75,-397 1109.75,-397 1109.75,-393 1113.75,-393 1113.75,-373 1109.75,-373 1109.75,-369 1113.75,-369 1113.75,-365 1228,-365 1228,-401"/>
<polyline fill="none" stroke="green" points="1113.75,-397 1117.75,-397 1117.75,-393 1113.75,-393"/>
<polyline fill="none" stroke="green" points="1113.75,-373 1117.75,-373 1117.75,-369 1113.75,-369"/>
<text text-anchor="middle" x="1170.88" y="-377.95" font-family="Times,serif" font-size="14.00">(4) wait (sec=0.5)</text>
</g>
<!-- 2&#45;&gt;4 -->
<g id="edge3" class="edge">
<title>2&#45;&gt;4</title>
<path fill="none" stroke="black" d="M1170.88,-436.7C1170.88,-429.41 1170.88,-420.73 1170.88,-412.54"/>
<polygon fill="black" stroke="black" points="1174.38,-412.62 1170.88,-402.62 1167.38,-412.62 1174.38,-412.62"/>
</g>
<!-- 5 -->
<g id="node5" class="node">
<title>5</title>
<polygon fill="none" stroke="purple" points="1351.88,-401 1257.88,-401 1257.88,-405 1245.88,-405 1245.88,-365 1351.88,-365 1351.88,-401"/>
<polyline fill="none" stroke="purple" points="1245.88,-401 1257.88,-401"/>
<text text-anchor="middle" x="1298.88" y="-377.95" font-family="Times,serif" font-size="14.00">(5) retry (arg=0)</text>
</g>
<!-- 2&#45;&gt;5 -->
<g id="edge4" class="edge">
<title>2&#45;&gt;5</title>
<path fill="none" stroke="black" d="M1202.84,-436.52C1219.31,-427.51 1239.59,-416.42 1257.26,-406.76"/>
<polygon fill="black" stroke="black" points="1258.89,-409.86 1265.98,-401.99 1255.53,-403.71 1258.89,-409.86"/>
</g>
<!-- 6 -->
<g id="node6" class="node">
<title>6</title>
<polygon fill="none" stroke="darkred" points="1341.38,-329 1256.38,-329 1256.38,-293 1341.38,-293 1341.38,-329"/>
<text text-anchor="middle" x="1298.88" y="-305.95" font-family="Times,serif" font-size="14.00">(6) sequence</text>
</g>
<!-- 5&#45;&gt;6 -->
<g id="edge5" class="edge">
<title>5&#45;&gt;6</title>
<path fill="none" stroke="black" d="M1298.88,-364.7C1298.88,-357.41 1298.88,-348.73 1298.88,-340.54"/>
<polygon fill="black" stroke="black" points="1302.38,-340.62 1298.88,-330.62 1295.38,-340.62 1302.38,-340.62"/>
</g>
<!-- 7 -->
<g id="node7" class="node">
<title>7</title>
<polygon fill="none" stroke="green" points="1285.38,-257 1224.38,-257 1224.38,-253 1220.38,-253 1220.38,-249 1224.38,-249 1224.38,-229 1220.38,-229 1220.38,-225 1224.38,-225 1224.38,-221 1285.38,-221 1285.38,-257"/>
<polyline fill="none" stroke="green" points="1224.38,-253 1228.38,-253 1228.38,-249 1224.38,-249"/>
<polyline fill="none" stroke="green" points="1224.38,-229 1228.38,-229 1228.38,-225 1224.38,-225"/>
<text text-anchor="middle" x="1254.88" y="-233.95" font-family="Times,serif" font-size="14.00">(7) step </text>
</g>
<!-- 6&#45;&gt;7 -->
<g id="edge6" class="edge">
<title>6&#45;&gt;7</title>
<path fill="none" stroke="black" d="M1288,-292.7C1283.1,-284.9 1277.19,-275.51 1271.74,-266.83"/>
<polygon fill="black" stroke="black" points="1274.72,-264.99 1266.43,-258.39 1268.79,-268.71 1274.72,-264.99"/>
</g>
<!-- 8 -->
<g id="node8" class="node">
<title>8</title>
<polygon fill="none" stroke="purple" points="1384.5,-257 1315.25,-257 1315.25,-261 1303.25,-261 1303.25,-221 1384.5,-221 1384.5,-257"/>
<polyline fill="none" stroke="purple" points="1303.25,-257 1315.25,-257"/>
<text text-anchor="middle" x="1343.88" y="-233.95" font-family="Times,serif" font-size="14.00">(8) inverter </text>
</g>
<!-- 6&#45;&gt;8 -->
<g id="edge7" class="edge">
<title>6&#45;&gt;8</title>
<path fill="none" stroke="black" d="M1310,-292.7C1315.07,-284.81 1321.18,-275.3 1326.81,-266.55"/>
<polygon fill="black" stroke="black" points="1329.6,-268.68 1332.06,-258.38 1323.71,-264.9 1329.6,-268.68"/>
</g>
<!-- 9 -->
<g id="node9" class="node">
<title>9</title>
<polygon fill="none" stroke="blue" points="1383.38,-185 1304.38,-185 1304.38,-149 1383.38,-149 1383.38,-185"/>
<text text-anchor="middle" x="1343.88" y="-161.95" font-family="Times,serif" font-size="14.00">(9) fallback</text>
</g>
<!-- 8&#45;&gt;9 -->
<g id="edge8" class="edge">
<title>8&#45;&gt;9</title>
<path fill="none" stroke="black" d="M1343.88,-220.7C1343.88,-213.41 1343.88,-204.73 1343.88,-196.54"/>
<polygon fill="black" stroke="black" points="1347.38,-196.62 1343.88,-186.62 1340.38,-196.62 1347.38,-196.62"/>
</g>
<!-- 10 -->
<g id="node10" class="node">
<title>10</title>
<polygon fill="none" stroke="darkred" points="296.75,-113 205,-113 205,-72 296.75,-72 296.75,-113"/>
<text text-anchor="middle" x="250.88" y="-95.7" font-family="Times,serif" font-size="14.00">(10) sequence</text>
<text text-anchor="middle" x="250.88" y="-79.2" font-family="Times,serif" font-size="14.00">if_wall </text>
</g>
<!-- 9&#45;&gt;10 -->
<g id="edge9" class="edge">
<title>9&#45;&gt;10</title>
<path fill="none" stroke="black" d="M1304,-163.36C1138.36,-152.37 504.09,-110.3 308.59,-97.33"/>
<polygon fill="black" stroke="black" points="308.89,-93.84 298.68,-96.67 308.42,-100.82 308.89,-93.84"/>
</g>
<!-- 11 -->
<g id="node11" class="node">
<title>11</title>
<polygon fill="none" stroke="darkred" points="821.75,-113 718,-113 718,-72 821.75,-72 821.75,-113"/>
<text text-anchor="middle" x="769.88" y="-95.7" font-family="Times,serif" font-size="14.00">(11) sequence</text>
<text text-anchor="middle" x="769.88" y="-79.2" font-family="Times,serif" font-size="14.00">if_left_obstacle </text>
</g>
<!-- 9&#45;&gt;11 -->
<g id="edge10" class="edge">
<title>9&#45;&gt;11</title>
<path fill="none" stroke="black" d="M1303.97,-160.96C1205.82,-148.56 952.04,-116.51 833.12,-101.49"/>
<polygon fill="black" stroke="black" points="833.9,-98.06 823.54,-100.28 833.03,-105 833.9,-98.06"/>
</g>
<!-- 12 -->
<g id="node12" class="node">
<title>12</title>
<polygon fill="none" stroke="darkred" points="1399.5,-113 1288.25,-113 1288.25,-72 1399.5,-72 1399.5,-113"/>
<text text-anchor="middle" x="1343.88" y="-95.7" font-family="Times,serif" font-size="14.00">(12) sequence</text>
<text text-anchor="middle" x="1343.88" y="-79.2" font-family="Times,serif" font-size="14.00">if_right_obstacle </text>
</g>
<!-- 9&#45;&gt;12 -->
<g id="edge11" class="edge">
<title>9&#45;&gt;12</title>
<path fill="none" stroke="black" d="M1343.88,-148.82C1343.88,-141.59 1343.88,-132.95 1343.88,-124.66"/>
<polygon fill="black" stroke="black" points="1347.38,-124.89 1343.88,-114.89 1340.38,-124.89 1347.38,-124.89"/>
</g>
<!-- 13 -->
<g id="node13" class="node">
<title>13</title>
<polygon fill="none" stroke="darkred" points="1978.88,-113 1866.88,-113 1866.88,-72 1978.88,-72 1978.88,-113"/>
<text text-anchor="middle" x="1922.88" y="-95.7" font-family="Times,serif" font-size="14.00">(13) sequence</text>
<text text-anchor="middle" x="1922.88" y="-79.2" font-family="Times,serif" font-size="14.00">if_front_obstacle </text>
</g>
<!-- 9&#45;&gt;13 -->
<g id="edge12" class="edge">
<title>9&#45;&gt;13</title>
<path fill="none" stroke="black" d="M1383.67,-161.02C1481.31,-148.79 1733.61,-117.2 1855.28,-101.96"/>
<polygon fill="black" stroke="black" points="1855.65,-105.44 1865.14,-100.73 1854.78,-98.5 1855.65,-105.44"/>
</g>
<!-- 14 -->
<g id="node14" class="node">
<title>14</title>
<polygon fill="none" stroke="purple" points="2261.88,-110.5 2185.88,-110.5 2185.88,-114.5 2173.88,-114.5 2173.88,-74.5 2261.88,-74.5 2261.88,-110.5"/>
<polyline fill="none" stroke="purple" points="2173.88,-110.5 2185.88,-110.5"/>
<text text-anchor="middle" x="2217.88" y="-87.45" font-family="Times,serif" font-size="14.00">(14) inverter </text>
</g>
<!-- 9&#45;&gt;14 -->
<g id="edge13" class="edge">
<title>9&#45;&gt;14</title>
<path fill="none" stroke="black" d="M1383.82,-162.75C1484.94,-154.51 1759.26,-132.1 1987.88,-113 2047.51,-108.02 2115.84,-102.21 2162.43,-98.24"/>
<polygon fill="black" stroke="black" points="2162.61,-101.74 2172.28,-97.4 2162.02,-94.76 2162.61,-101.74"/>
</g>
<!-- 15 -->
<g id="node15" class="node">
<title>15</title>
<polygon fill="none" stroke="green" points="163.75,-36 0,-36 0,-32 -4,-32 -4,-28 0,-28 0,-8 -4,-8 -4,-4 0,-4 0,0 163.75,0 163.75,-36"/>
<polyline fill="none" stroke="green" points="0,-32 4,-32 4,-28 0,-28"/>
<polyline fill="none" stroke="green" points="0,-8 4,-8 4,-4 0,-4"/>
<text text-anchor="middle" x="81.88" y="-12.95" font-family="Times,serif" font-size="14.00">(15) collision (target=wall)</text>
</g>
<!-- 10&#45;&gt;15 -->
<g id="edge14" class="edge">
<title>10&#45;&gt;15</title>
<path fill="none" stroke="black" d="M204.7,-71.69C182.51,-62.17 155.84,-50.73 133.04,-40.95"/>
<polygon fill="black" stroke="black" points="134.49,-37.76 123.92,-37.04 131.73,-44.2 134.49,-37.76"/>
</g>
<!-- 16 -->
<g id="node16" class="node">
<title>16</title>
<polygon fill="none" stroke="green" points="320,-36 181.75,-36 181.75,-32 177.75,-32 177.75,-28 181.75,-28 181.75,-8 177.75,-8 177.75,-4 181.75,-4 181.75,0 320,0 320,-36"/>
<polyline fill="none" stroke="green" points="181.75,-32 185.75,-32 185.75,-28 181.75,-28"/>
<polyline fill="none" stroke="green" points="181.75,-8 185.75,-8 185.75,-4 181.75,-4"/>
<text text-anchor="middle" x="250.88" y="-12.95" font-family="Times,serif" font-size="14.00">(16) turn (angle=3.14)</text>
</g>
<!-- 10&#45;&gt;16 -->
<g id="edge15" class="edge">
<title>10&#45;&gt;16</title>
<path fill="none" stroke="black" d="M250.88,-71.69C250.88,-64.25 250.88,-55.64 250.88,-47.57"/>
<polygon fill="black" stroke="black" points="254.38,-47.83 250.88,-37.83 247.38,-47.83 254.38,-47.83"/>
</g>
<!-- 17 -->
<g id="node17" class="node">
<title>17</title>
<polygon fill="none" stroke="green" points="496.12,-36 337.62,-36 337.62,-32 333.62,-32 333.62,-28 337.62,-28 337.62,-8 333.62,-8 333.62,-4 337.62,-4 337.62,0 496.12,0 496.12,-36"/>
<polyline fill="none" stroke="green" points="337.62,-32 341.62,-32 341.62,-28 337.62,-28"/>
<polyline fill="none" stroke="green" points="337.62,-8 341.62,-8 341.62,-4 337.62,-4"/>
<text text-anchor="middle" x="416.88" y="-12.95" font-family="Times,serif" font-size="14.00">(17) collision (target=left)</text>
</g>
<!-- 11&#45;&gt;17 -->
<g id="edge16" class="edge">
<title>11&#45;&gt;17</title>
<path fill="none" stroke="black" d="M717.79,-80.8C662.47,-69.44 573.98,-51.27 507.24,-37.56"/>
<polygon fill="black" stroke="black" points="508.29,-34.2 497.79,-35.62 506.89,-41.06 508.29,-34.2"/>
</g>
<!-- 18 -->
<g id="node18" class="node">
<title>18</title>
<polygon fill="none" stroke="green" points="691.5,-36 514.25,-36 514.25,-32 510.25,-32 510.25,-28 514.25,-28 514.25,-8 510.25,-8 510.25,-4 514.25,-4 514.25,0 691.5,0 691.5,-36"/>
<polyline fill="none" stroke="green" points="514.25,-32 518.25,-32 518.25,-28 514.25,-28"/>
<polyline fill="none" stroke="green" points="514.25,-8 518.25,-8 518.25,-4 514.25,-4"/>
<text text-anchor="middle" x="602.88" y="-12.95" font-family="Times,serif" font-size="14.00">(18) move (target=backward)</text>
</g>
<!-- 11&#45;&gt;18 -->
<g id="edge17" class="edge">
<title>11&#45;&gt;18</title>
<path fill="none" stroke="black" d="M724.24,-71.69C702.32,-62.17 675.97,-50.73 653.44,-40.95"/>
<polygon fill="black" stroke="black" points="655,-37.82 644.44,-37.04 652.22,-44.24 655,-37.82"/>
</g>
<!-- 19 -->
<g id="node19" class="node">
<title>19</title>
<polygon fill="none" stroke="green" points="830.38,-36 709.38,-36 709.38,-32 705.38,-32 705.38,-28 709.38,-28 709.38,-8 705.38,-8 705.38,-4 709.38,-4 709.38,0 830.38,0 830.38,-36"/>
<polyline fill="none" stroke="green" points="709.38,-32 713.38,-32 713.38,-28 709.38,-28"/>
<polyline fill="none" stroke="green" points="709.38,-8 713.38,-8 713.38,-4 709.38,-4"/>
<text text-anchor="middle" x="769.88" y="-12.95" font-family="Times,serif" font-size="14.00">(19) wait (sec=0.5)</text>
</g>
<!-- 11&#45;&gt;19 -->
<g id="edge18" class="edge">
<title>11&#45;&gt;19</title>
<path fill="none" stroke="black" d="M769.88,-71.69C769.88,-64.25 769.88,-55.64 769.88,-47.57"/>
<polygon fill="black" stroke="black" points="773.38,-47.83 769.88,-37.83 766.38,-47.83 773.38,-47.83"/>
</g>
<!-- 20 -->
<g id="node20" class="node">
<title>20</title>
<polygon fill="none" stroke="green" points="969.38,-36 848.38,-36 848.38,-32 844.38,-32 844.38,-28 848.38,-28 848.38,-8 844.38,-8 844.38,-4 848.38,-4 848.38,0 969.38,0 969.38,-36"/>
<polyline fill="none" stroke="green" points="848.38,-32 852.38,-32 852.38,-28 848.38,-28"/>
<polyline fill="none" stroke="green" points="848.38,-8 852.38,-8 852.38,-4 848.38,-4"/>
<text text-anchor="middle" x="908.88" y="-12.95" font-family="Times,serif" font-size="14.00">(20) turn (angle=2)</text>
</g>
<!-- 11&#45;&gt;20 -->
<g id="edge19" class="edge">
<title>11&#45;&gt;20</title>
<path fill="none" stroke="black" d="M807.86,-71.69C825.68,-62.39 847.01,-51.27 865.47,-41.64"/>
<polygon fill="black" stroke="black" points="867.08,-44.75 874.33,-37.02 863.84,-38.54 867.08,-44.75"/>
</g>
<!-- 21 -->
<g id="node21" class="node">
<title>21</title>
<polygon fill="none" stroke="green" points="1153.88,-36 987.88,-36 987.88,-32 983.88,-32 983.88,-28 987.88,-28 987.88,-8 983.88,-8 983.88,-4 987.88,-4 987.88,0 1153.88,0 1153.88,-36"/>
<polyline fill="none" stroke="green" points="987.88,-32 991.88,-32 991.88,-28 987.88,-28"/>
<polyline fill="none" stroke="green" points="987.88,-8 991.88,-8 991.88,-4 987.88,-4"/>
<text text-anchor="middle" x="1070.88" y="-12.95" font-family="Times,serif" font-size="14.00">(21) collision (target=right)</text>
</g>
<!-- 12&#45;&gt;21 -->
<g id="edge20" class="edge">
<title>12&#45;&gt;21</title>
<path fill="none" stroke="black" d="M1287.97,-76.65C1247.42,-65.88 1192.08,-51.19 1147.42,-39.33"/>
<polygon fill="black" stroke="black" points="1148.34,-35.95 1137.77,-36.77 1146.54,-42.72 1148.34,-35.95"/>
</g>
<!-- 22 -->
<g id="node22" class="node">
<title>22</title>
<polygon fill="none" stroke="green" points="1349.5,-36 1172.25,-36 1172.25,-32 1168.25,-32 1168.25,-28 1172.25,-28 1172.25,-8 1168.25,-8 1168.25,-4 1172.25,-4 1172.25,0 1349.5,0 1349.5,-36"/>
<polyline fill="none" stroke="green" points="1172.25,-32 1176.25,-32 1176.25,-28 1172.25,-28"/>
<polyline fill="none" stroke="green" points="1172.25,-8 1176.25,-8 1176.25,-4 1172.25,-4"/>
<text text-anchor="middle" x="1260.88" y="-12.95" font-family="Times,serif" font-size="14.00">(22) move (target=backward)</text>
</g>
<!-- 12&#45;&gt;22 -->
<g id="edge21" class="edge">
<title>12&#45;&gt;22</title>
<path fill="none" stroke="black" d="M1321.19,-71.69C1311.3,-63.04 1299.58,-52.81 1289.13,-43.68"/>
<polygon fill="black" stroke="black" points="1291.68,-41.26 1281.84,-37.32 1287.07,-46.53 1291.68,-41.26"/>
</g>
<!-- 23 -->
<g id="node23" class="node">
<title>23</title>
<polygon fill="none" stroke="green" points="1488.38,-36 1367.38,-36 1367.38,-32 1363.38,-32 1363.38,-28 1367.38,-28 1367.38,-8 1363.38,-8 1363.38,-4 1367.38,-4 1367.38,0 1488.38,0 1488.38,-36"/>
<polyline fill="none" stroke="green" points="1367.38,-32 1371.38,-32 1371.38,-28 1367.38,-28"/>
<polyline fill="none" stroke="green" points="1367.38,-8 1371.38,-8 1371.38,-4 1367.38,-4"/>
<text text-anchor="middle" x="1427.88" y="-12.95" font-family="Times,serif" font-size="14.00">(23) wait (sec=0.5)</text>
</g>
<!-- 12&#45;&gt;23 -->
<g id="edge22" class="edge">
<title>12&#45;&gt;23</title>
<path fill="none" stroke="black" d="M1366.83,-71.69C1376.85,-63.04 1388.7,-52.81 1399.28,-43.68"/>
<polygon fill="black" stroke="black" points="1401.38,-46.49 1406.66,-37.31 1396.81,-41.19 1401.38,-46.49"/>
</g>
<!-- 24 -->
<g id="node24" class="node">
<title>24</title>
<polygon fill="none" stroke="green" points="1631.62,-36 1506.12,-36 1506.12,-32 1502.12,-32 1502.12,-28 1506.12,-28 1506.12,-8 1502.12,-8 1502.12,-4 1506.12,-4 1506.12,0 1631.62,0 1631.62,-36"/>
<polyline fill="none" stroke="green" points="1506.12,-32 1510.12,-32 1510.12,-28 1506.12,-28"/>
<polyline fill="none" stroke="green" points="1506.12,-8 1510.12,-8 1510.12,-4 1506.12,-4"/>
<text text-anchor="middle" x="1568.88" y="-12.95" font-family="Times,serif" font-size="14.00">(24) turn (angle=&#45;2)</text>
</g>
<!-- 12&#45;&gt;24 -->
<g id="edge23" class="edge">
<title>12&#45;&gt;24</title>
<path fill="none" stroke="black" d="M1399.78,-73.49C1431.35,-63.31 1470.97,-50.55 1503.91,-39.93"/>
<polygon fill="black" stroke="black" points="1504.92,-43.28 1513.37,-36.89 1502.78,-36.62 1504.92,-43.28"/>
</g>
<!-- 25 -->
<g id="node25" class="node">
<title>25</title>
<polygon fill="none" stroke="green" points="1816.25,-36 1649.5,-36 1649.5,-32 1645.5,-32 1645.5,-28 1649.5,-28 1649.5,-8 1645.5,-8 1645.5,-4 1649.5,-4 1649.5,0 1816.25,0 1816.25,-36"/>
<polyline fill="none" stroke="green" points="1649.5,-32 1653.5,-32 1653.5,-28 1649.5,-28"/>
<polyline fill="none" stroke="green" points="1649.5,-8 1653.5,-8 1653.5,-4 1649.5,-4"/>
<text text-anchor="middle" x="1732.88" y="-12.95" font-family="Times,serif" font-size="14.00">(25) collision (target=front)</text>
</g>
<!-- 13&#45;&gt;25 -->
<g id="edge24" class="edge">
<title>13&#45;&gt;25</title>
<path fill="none" stroke="black" d="M1870.71,-71.59C1845.42,-61.95 1815.02,-50.35 1789.22,-40.5"/>
<polygon fill="black" stroke="black" points="1790.47,-37.23 1779.88,-36.94 1787.97,-43.77 1790.47,-37.23"/>
</g>
<!-- 26 -->
<g id="node26" class="node">
<title>26</title>
<polygon fill="none" stroke="green" points="2011.5,-36 1834.25,-36 1834.25,-32 1830.25,-32 1830.25,-28 1834.25,-28 1834.25,-8 1830.25,-8 1830.25,-4 1834.25,-4 1834.25,0 2011.5,0 2011.5,-36"/>
<polyline fill="none" stroke="green" points="1834.25,-32 1838.25,-32 1838.25,-28 1834.25,-28"/>
<polyline fill="none" stroke="green" points="1834.25,-8 1838.25,-8 1838.25,-4 1834.25,-4"/>
<text text-anchor="middle" x="1922.88" y="-12.95" font-family="Times,serif" font-size="14.00">(26) move (target=backward)</text>
</g>
<!-- 13&#45;&gt;26 -->
<g id="edge25" class="edge">
<title>13&#45;&gt;26</title>
<path fill="none" stroke="black" d="M1922.88,-71.69C1922.88,-64.25 1922.88,-55.64 1922.88,-47.57"/>
<polygon fill="black" stroke="black" points="1926.38,-47.83 1922.88,-37.83 1919.38,-47.83 1926.38,-47.83"/>
</g>
<!-- 27 -->
<g id="node27" class="node">
<title>27</title>
<polygon fill="none" stroke="green" points="2150.38,-36 2029.38,-36 2029.38,-32 2025.38,-32 2025.38,-28 2029.38,-28 2029.38,-8 2025.38,-8 2025.38,-4 2029.38,-4 2029.38,0 2150.38,0 2150.38,-36"/>
<polyline fill="none" stroke="green" points="2029.38,-32 2033.38,-32 2033.38,-28 2029.38,-28"/>
<polyline fill="none" stroke="green" points="2029.38,-8 2033.38,-8 2033.38,-4 2029.38,-4"/>
<text text-anchor="middle" x="2089.88" y="-12.95" font-family="Times,serif" font-size="14.00">(27) wait (sec=0.5)</text>
</g>
<!-- 13&#45;&gt;27 -->
<g id="edge26" class="edge">
<title>13&#45;&gt;27</title>
<path fill="none" stroke="black" d="M1968.51,-71.69C1990.43,-62.17 2016.78,-50.73 2039.31,-40.95"/>
<polygon fill="black" stroke="black" points="2040.53,-44.24 2048.31,-37.04 2037.75,-37.82 2040.53,-44.24"/>
</g>
<!-- 28 -->
<g id="node28" class="node">
<title>28</title>
<polygon fill="none" stroke="green" points="2293.62,-36 2168.12,-36 2168.12,-32 2164.12,-32 2164.12,-28 2168.12,-28 2168.12,-8 2164.12,-8 2164.12,-4 2168.12,-4 2168.12,0 2293.62,0 2293.62,-36"/>
<polyline fill="none" stroke="green" points="2168.12,-32 2172.12,-32 2172.12,-28 2168.12,-28"/>
<polyline fill="none" stroke="green" points="2168.12,-8 2172.12,-8 2172.12,-4 2168.12,-4"/>
<text text-anchor="middle" x="2230.88" y="-12.95" font-family="Times,serif" font-size="14.00">(28) turn (angle=&#45;5)</text>
</g>
<!-- 13&#45;&gt;28 -->
<g id="edge27" class="edge">
<title>13&#45;&gt;28</title>
<path fill="none" stroke="black" d="M1978.92,-78.46C2024.42,-67.85 2090.56,-52.39 2156.73,-36.74"/>
<polygon fill="black" stroke="black" points="2157.38,-40.18 2166.3,-34.47 2155.77,-33.37 2157.38,-40.18"/>
</g>
<!-- 29 -->
<g id="node29" class="node">
<title>29</title>
<polygon fill="none" stroke="green" points="2479.62,-36 2312.12,-36 2312.12,-32 2308.12,-32 2308.12,-28 2312.12,-28 2312.12,-8 2308.12,-8 2308.12,-4 2312.12,-4 2312.12,0 2479.62,0 2479.62,-36"/>
<polyline fill="none" stroke="green" points="2312.12,-32 2316.12,-32 2316.12,-28 2312.12,-28"/>
<polyline fill="none" stroke="green" points="2312.12,-8 2316.12,-8 2316.12,-4 2312.12,-4"/>
<text text-anchor="middle" x="2395.88" y="-12.95" font-family="Times,serif" font-size="14.00">(29) move (target=forward)</text>
</g>
<!-- 14&#45;&gt;29 -->
<g id="edge28" class="edge">
<title>14&#45;&gt;29</title>
<path fill="none" stroke="black" d="M2260.51,-74.13C2285.1,-64.12 2316.24,-51.44 2342.45,-40.76"/>
<polygon fill="black" stroke="black" points="2343.63,-44.06 2351.57,-37.05 2340.99,-37.58 2343.63,-44.06"/>
</g>
</g>
</svg>
